# xmcd
#
# Track frame offsets: 
#        150
#        9333
#        22780
#        39796
#        53825
#        73134
#        88922
#        103439
#        121350
#        139693
#        164910
#
# Disc length: 2412 seconds
#
# Revision: 0
# Processed by: cddbd v1.5.1PL2 Copyright (c) Steve Scherf et al.
# Submitted via: ExactAudioCopy v0.90b4
#
DISCID=93096a0b
DTITLE=Kenneth Brian - Brighter Day
DYEAR=2006
DGENRE=Country
TTITLE0=Ghost Dance
TTITLE1=Nashville Line
TTITLE2=Nothin Left To Say
TTITLE3=High Time
TTITLE4=When I Had You
TTITLE5=My Way
TTITLE6=Sorrow
TTITLE7=349
TTITLE8=Thanks Alot
TTITLE9=Brighter Day
TTITLE10=Las Vegas
EXTD=
EXTT0=
EXTT1=
EXTT2=
EXTT3=
EXTT4=
EXTT5=
EXTT6=
EXTT7=
EXTT8=
EXTT9=
EXTT10=
PLAYORDER=
